<svg width="15" height="8" viewBox="0 0 15 8" fill="none" xmlns="http://www.w3.org/2000/svg">
<path d="M7.50569 6.5381C8.8521 6.5381 9.94358 5.40176 9.94358 4.00001C9.94358 2.59827 8.8521 1.46193 7.50569 1.46193C6.15929 1.46193 5.06781 2.59827 5.06781 4.00001C5.06781 5.40176 6.15929 6.5381 7.50569 6.5381Z" fill="#A8A8A8"/>
<path fill-rule="evenodd" clip-rule="evenodd" d="M0 4L1.49847 2.49566C4.81302 -0.831885 10.187 -0.831887 13.5015 2.49566L15 4L13.5015 5.50434C10.187 8.83189 4.81302 8.83189 1.49847 5.50434L0 4ZM1.27692 4L2.13693 3.13662C5.09887 0.163071 9.90113 0.16307 12.8631 3.13662L13.7231 4L12.8631 4.86338C9.90113 7.83693 5.09887 7.83693 2.13693 4.86338L1.27692 4Z" fill="#A8A8A8"/>
</svg>
