<svg width="15" height="14" viewBox="0 0 15 14" fill="none" xmlns="http://www.w3.org/2000/svg">
<path d="M7.27185 1.22658C7.42152 0.765924 8.07323 0.76592 8.2229 1.22658L9.18022 4.17288C9.38103 4.79092 9.95696 5.20936 10.6068 5.20936H13.7047C14.1891 5.20936 14.3905 5.82916 13.9986 6.11387L11.4923 7.93478C10.9666 8.31675 10.7466 8.9938 10.9474 9.61183L11.9048 12.5581C12.0544 13.0188 11.5272 13.4019 11.1353 13.1172L8.62905 11.2962C8.10332 10.9143 7.39143 10.9143 6.8657 11.2962L4.35942 13.1172C3.96756 13.4019 3.44032 13.0188 3.59 12.5581L4.54731 9.61183C4.74812 8.9938 4.52814 8.31675 4.00241 7.93478L1.49613 6.11386C1.10427 5.82917 1.30566 5.20936 1.79002 5.20936H4.88795C5.53779 5.20936 6.11372 4.79092 6.31453 4.17288L7.27185 1.22658Z" stroke="black"/>
</svg>
