<svg width="15" height="15" viewBox="0 0 15 15" fill="none" xmlns="http://www.w3.org/2000/svg">
<path d="M7.02447 1.58156C7.17415 1.1209 7.82585 1.1209 7.97553 1.58156L8.93284 4.52786C9.13365 5.1459 9.70959 5.56434 10.3594 5.56434H13.4574C13.9417 5.56434 14.1431 6.18414 13.7512 6.46885L11.245 8.28976C10.7192 8.67173 10.4993 9.34878 10.7001 9.96681L11.6574 12.9131C11.8071 13.3738 11.2798 13.7568 10.888 13.4721L8.38168 11.6512C7.85595 11.2693 7.14405 11.2693 6.61832 11.6512L4.11204 13.4721C3.72019 13.7568 3.19295 13.3738 3.34262 12.9131L4.29994 9.96681C4.50075 9.34878 4.28076 8.67173 3.75503 8.28976L1.24875 6.46885C0.856898 6.18415 1.05828 5.56434 1.54265 5.56434H4.64057C5.29041 5.56434 5.86635 5.1459 6.06716 4.52786L7.02447 1.58156Z" stroke="#B2B2B2"/>
</svg>
