<svg width="95" height="14" viewBox="0 0 95 14" fill="none" xmlns="http://www.w3.org/2000/svg">
<path d="M10.268 0.399999H13.112C13.244 0.399999 13.358 0.447999 13.454 0.543999C13.55 0.64 13.598 0.754 13.598 0.885999V12.514C13.598 12.646 13.55 12.76 13.454 12.856C13.358 12.952 13.244 13 13.112 13H9.854C9.722 13 9.608 12.952 9.512 12.856C9.416 12.76 9.368 12.646 9.368 12.514V7.582L8.18 9.526C7.988 9.826 7.766 9.976 7.514 9.976H6.254C6.002 9.976 5.78 9.826 5.588 9.526L4.4 7.582V12.514C4.4 12.646 4.352 12.76 4.256 12.856C4.16 12.952 4.046 13 3.914 13H0.656C0.524 13 0.41 12.952 0.314 12.856C0.218 12.76 0.17 12.646 0.17 12.514V0.885999C0.17 0.754 0.218 0.64 0.314 0.543999C0.41 0.447999 0.524 0.399999 0.656 0.399999H3.5C3.836 0.399999 4.094 0.561999 4.274 0.885999L6.884 5.206L9.494 0.885999C9.674 0.561999 9.932 0.399999 10.268 0.399999ZM19.8796 0.399999H23.7856C24.2176 0.399999 24.4876 0.597999 24.5956 0.993999L28.6096 12.478C28.6216 12.514 28.6276 12.574 28.6276 12.658C28.6276 12.73 28.5856 12.808 28.5016 12.892C28.4296 12.964 28.3396 13 28.2316 13H24.9016C24.5416 13 24.3076 12.85 24.1996 12.55L23.7676 11.362H19.8976L19.4656 12.55C19.3576 12.85 19.1236 13 18.7636 13H15.4336C15.3256 13 15.2296 12.964 15.1456 12.892C15.0736 12.808 15.0376 12.73 15.0376 12.658C15.0376 12.574 15.0436 12.514 15.0556 12.478L19.0696 0.993999C19.1776 0.597999 19.4476 0.399999 19.8796 0.399999ZM20.8156 7.852H22.8496L21.8236 4.504L20.8156 7.852ZM34.3904 5.188V8.212C34.3904 9.184 34.8344 9.67 35.7224 9.67C36.4064 9.67 36.8564 9.346 37.0724 8.698C37.1324 8.494 37.2044 8.356 37.2884 8.284C37.3844 8.212 37.5344 8.176 37.7384 8.176H41.4104C41.5184 8.176 41.6084 8.218 41.6804 8.302C41.7644 8.374 41.8064 8.464 41.8064 8.572C41.8064 9.616 41.5064 10.492 40.9064 11.2C39.8024 12.52 38.0804 13.18 35.7404 13.18C33.9044 13.18 32.4404 12.778 31.3484 11.974C30.2564 11.158 29.7104 9.91 29.7104 8.23V5.17C29.7104 3.526 30.2684 2.29 31.3844 1.462C32.5004 0.633999 33.9524 0.219999 35.7404 0.219999C38.0804 0.219999 39.8024 0.879999 40.9064 2.2C41.5064 2.908 41.8064 3.784 41.8064 4.828C41.8064 4.936 41.7644 5.032 41.6804 5.116C41.6084 5.188 41.5184 5.224 41.4104 5.224H37.7384C37.5464 5.224 37.4024 5.188 37.3064 5.116C37.2224 5.044 37.1444 4.906 37.0724 4.702C36.8444 4.054 36.3944 3.73 35.7224 3.73C34.8344 3.73 34.3904 4.216 34.3904 5.188ZM43.3737 0.399999H53.9217C54.0537 0.399999 54.1677 0.447999 54.2637 0.543999C54.3597 0.64 54.4077 0.754 54.4077 0.885999V3.784C54.4077 3.916 54.3597 4.03 54.2637 4.126C54.1677 4.222 54.0537 4.27 53.9217 4.27H50.9337V12.514C50.9337 12.646 50.8857 12.76 50.7897 12.856C50.6937 12.952 50.5797 13 50.4477 13H46.8477C46.7157 13 46.6017 12.952 46.5057 12.856C46.4097 12.76 46.3617 12.646 46.3617 12.514V4.27H43.3737C43.2417 4.27 43.1277 4.222 43.0317 4.126C42.9357 4.03 42.8877 3.916 42.8877 3.784V0.885999C42.8877 0.754 42.9357 0.64 43.0317 0.543999C43.1277 0.447999 43.2417 0.399999 43.3737 0.399999ZM60.4412 9.49H65.9852C66.1172 9.49 66.2312 9.538 66.3272 9.634C66.4232 9.73 66.4712 9.844 66.4712 9.976V12.514C66.4712 12.646 66.4232 12.76 66.3272 12.856C66.2312 12.952 66.1172 13 65.9852 13H56.6072C56.4752 13 56.3612 12.952 56.2652 12.856C56.1692 12.76 56.1212 12.646 56.1212 12.514V0.885999C56.1212 0.754 56.1692 0.64 56.2652 0.543999C56.3612 0.447999 56.4752 0.399999 56.6072 0.399999H65.8412C65.9732 0.399999 66.0872 0.447999 66.1832 0.543999C66.2792 0.64 66.3272 0.754 66.3272 0.885999V3.424C66.3272 3.556 66.2792 3.67 66.1832 3.766C66.0872 3.862 65.9732 3.91 65.8412 3.91H60.4412V5.044H65.4452C65.5772 5.044 65.6912 5.092 65.7872 5.188C65.8832 5.284 65.9312 5.398 65.9312 5.53V7.87C65.9312 8.002 65.8832 8.116 65.7872 8.212C65.6912 8.308 65.5772 8.356 65.4452 8.356H60.4412V9.49ZM69.1228 0.399999H74.4868C76.2148 0.399999 77.5648 0.771999 78.5368 1.516C79.5088 2.26 79.9948 3.358 79.9948 4.81C79.9948 6.262 79.5088 7.336 78.5368 8.032C77.5768 8.728 76.2268 9.076 74.4868 9.076H73.3168V12.514C73.3168 12.646 73.2688 12.76 73.1728 12.856C73.0768 12.952 72.9628 13 72.8308 13H69.1228C68.9908 13 68.8768 12.952 68.7808 12.856C68.6848 12.76 68.6368 12.646 68.6368 12.514V0.885999C68.6368 0.754 68.6848 0.64 68.7808 0.543999C68.8768 0.447999 68.9908 0.399999 69.1228 0.399999ZM73.2268 3.748V5.746H74.4868C74.7028 5.746 74.8948 5.668 75.0628 5.512C75.2308 5.344 75.3148 5.11 75.3148 4.81C75.3148 4.51 75.2488 4.258 75.1168 4.054C74.9848 3.85 74.7748 3.748 74.4868 3.748H73.2268ZM85.4636 0.399999H89.3696C89.8016 0.399999 90.0716 0.597999 90.1796 0.993999L94.1936 12.478C94.2056 12.514 94.2116 12.574 94.2116 12.658C94.2116 12.73 94.1696 12.808 94.0856 12.892C94.0136 12.964 93.9236 13 93.8156 13H90.4856C90.1256 13 89.8916 12.85 89.7836 12.55L89.3516 11.362H85.4816L85.0496 12.55C84.9416 12.85 84.7076 13 84.3476 13H81.0176C80.9096 13 80.8136 12.964 80.7296 12.892C80.6576 12.808 80.6216 12.73 80.6216 12.658C80.6216 12.574 80.6276 12.514 80.6396 12.478L84.6536 0.993999C84.7616 0.597999 85.0316 0.399999 85.4636 0.399999ZM86.3996 7.852H88.4336L87.4076 4.504L86.3996 7.852Z" fill="#45AE43"/>
</svg>
