<svg width="189" height="27" viewBox="0 0 189 27" fill="none" xmlns="http://www.w3.org/2000/svg">
<path d="M20.536 0.799998H26.224C26.488 0.799998 26.716 0.895998 26.908 1.088C27.1 1.28 27.196 1.508 27.196 1.772V25.028C27.196 25.292 27.1 25.52 26.908 25.712C26.716 25.904 26.488 26 26.224 26H19.708C19.444 26 19.216 25.904 19.024 25.712C18.832 25.52 18.736 25.292 18.736 25.028V15.164L16.36 19.052C15.976 19.652 15.532 19.952 15.028 19.952H12.508C12.004 19.952 11.56 19.652 11.176 19.052L8.8 15.164V25.028C8.8 25.292 8.704 25.52 8.512 25.712C8.32 25.904 8.092 26 7.828 26H1.312C1.048 26 0.82 25.904 0.628 25.712C0.436 25.52 0.34 25.292 0.34 25.028V1.772C0.34 1.508 0.436 1.28 0.628 1.088C0.82 0.895998 1.048 0.799998 1.312 0.799998H7C7.672 0.799998 8.188 1.124 8.548 1.772L13.768 10.412L18.988 1.772C19.348 1.124 19.864 0.799998 20.536 0.799998ZM39.7592 0.799998H47.5712C48.4352 0.799998 48.9752 1.196 49.1912 1.988L57.2192 24.956C57.2432 25.028 57.2552 25.148 57.2552 25.316C57.2552 25.46 57.1712 25.616 57.0032 25.784C56.8592 25.928 56.6792 26 56.4632 26H49.8032C49.0832 26 48.6152 25.7 48.3992 25.1L47.5352 22.724H39.7952L38.9312 25.1C38.7152 25.7 38.2472 26 37.5272 26H30.8672C30.6512 26 30.4592 25.928 30.2912 25.784C30.1472 25.616 30.0752 25.46 30.0752 25.316C30.0752 25.148 30.0872 25.028 30.1112 24.956L38.1392 1.988C38.3552 1.196 38.8952 0.799998 39.7592 0.799998ZM41.6312 15.704H45.6992L43.6472 9.008L41.6312 15.704ZM68.7808 10.376V16.424C68.7808 18.368 69.6688 19.34 71.4448 19.34C72.8128 19.34 73.7128 18.692 74.1448 17.396C74.2648 16.988 74.4088 16.712 74.5768 16.568C74.7688 16.424 75.0688 16.352 75.4768 16.352H82.8208C83.0368 16.352 83.2168 16.436 83.3608 16.604C83.5288 16.748 83.6128 16.928 83.6128 17.144C83.6128 19.232 83.0128 20.984 81.8128 22.4C79.6048 25.04 76.1608 26.36 71.4808 26.36C67.8088 26.36 64.8808 25.556 62.6968 23.948C60.5128 22.316 59.4208 19.82 59.4208 16.46V10.34C59.4208 7.052 60.5368 4.58 62.7688 2.924C65.0008 1.268 67.9048 0.439999 71.4808 0.439999C76.1608 0.439999 79.6048 1.76 81.8128 4.4C83.0128 5.816 83.6128 7.568 83.6128 9.656C83.6128 9.872 83.5288 10.064 83.3608 10.232C83.2168 10.376 83.0368 10.448 82.8208 10.448H75.4768C75.0928 10.448 74.8048 10.376 74.6128 10.232C74.4448 10.088 74.2888 9.812 74.1448 9.404C73.6888 8.108 72.7888 7.46 71.4448 7.46C69.6688 7.46 68.7808 8.432 68.7808 10.376ZM86.7473 0.799998H107.843C108.107 0.799998 108.335 0.895998 108.527 1.088C108.719 1.28 108.815 1.508 108.815 1.772V7.568C108.815 7.832 108.719 8.06 108.527 8.252C108.335 8.444 108.107 8.54 107.843 8.54H101.867V25.028C101.867 25.292 101.771 25.52 101.579 25.712C101.387 25.904 101.159 26 100.895 26H93.6953C93.4313 26 93.2033 25.904 93.0113 25.712C92.8193 25.52 92.7233 25.292 92.7233 25.028V8.54H86.7473C86.4833 8.54 86.2553 8.444 86.0633 8.252C85.8713 8.06 85.7753 7.832 85.7753 7.568V1.772C85.7753 1.508 85.8713 1.28 86.0633 1.088C86.2553 0.895998 86.4833 0.799998 86.7473 0.799998ZM120.882 18.98H131.97C132.234 18.98 132.462 19.076 132.654 19.268C132.846 19.46 132.942 19.688 132.942 19.952V25.028C132.942 25.292 132.846 25.52 132.654 25.712C132.462 25.904 132.234 26 131.97 26H113.214C112.95 26 112.722 25.904 112.53 25.712C112.338 25.52 112.242 25.292 112.242 25.028V1.772C112.242 1.508 112.338 1.28 112.53 1.088C112.722 0.895998 112.95 0.799998 113.214 0.799998H131.682C131.946 0.799998 132.174 0.895998 132.366 1.088C132.558 1.28 132.654 1.508 132.654 1.772V6.848C132.654 7.112 132.558 7.34 132.366 7.532C132.174 7.724 131.946 7.82 131.682 7.82H120.882V10.088H130.89C131.154 10.088 131.382 10.184 131.574 10.376C131.766 10.568 131.862 10.796 131.862 11.06V15.74C131.862 16.004 131.766 16.232 131.574 16.424C131.382 16.616 131.154 16.712 130.89 16.712H120.882V18.98ZM138.246 0.799998H148.974C152.43 0.799998 155.13 1.544 157.074 3.032C159.018 4.52 159.99 6.716 159.99 9.62C159.99 12.524 159.018 14.672 157.074 16.064C155.154 17.456 152.454 18.152 148.974 18.152H146.634V25.028C146.634 25.292 146.538 25.52 146.346 25.712C146.154 25.904 145.926 26 145.662 26H138.246C137.982 26 137.754 25.904 137.562 25.712C137.37 25.52 137.274 25.292 137.274 25.028V1.772C137.274 1.508 137.37 1.28 137.562 1.088C137.754 0.895998 137.982 0.799998 138.246 0.799998ZM146.454 7.496V11.492H148.974C149.406 11.492 149.79 11.336 150.126 11.024C150.462 10.688 150.63 10.22 150.63 9.62C150.63 9.02 150.498 8.516 150.234 8.108C149.97 7.7 149.55 7.496 148.974 7.496H146.454ZM170.927 0.799998H178.739C179.603 0.799998 180.143 1.196 180.359 1.988L188.387 24.956C188.411 25.028 188.423 25.148 188.423 25.316C188.423 25.46 188.339 25.616 188.171 25.784C188.027 25.928 187.847 26 187.631 26H180.971C180.251 26 179.783 25.7 179.567 25.1L178.703 22.724H170.963L170.099 25.1C169.883 25.7 169.415 26 168.695 26H162.035C161.819 26 161.627 25.928 161.459 25.784C161.315 25.616 161.243 25.46 161.243 25.316C161.243 25.148 161.255 25.028 161.279 24.956L169.307 1.988C169.523 1.196 170.063 0.799998 170.927 0.799998ZM172.799 15.704H176.867L174.815 9.008L172.799 15.704Z" fill="#45AE43"/>
</svg>
